<svg xmlns="http://www.w3.org/2000/svg" width="151.144" height="176.997" viewBox="0 0 151.144 176.997">
  <g id="logo-ustropralki" transform="translate(2194.79 -91.45)">
    <g id="Group_7" data-name="Group 7" transform="translate(-2194.79 91.45)">
      <path id="Path_4" data-name="Path 4" d="M-2044.044,181.216c-.173-6.141-.354-12.494-.392-18.752-.053-8.511-.157-15.929-.325-22.674-.019-1.254-.048-2.516-.077-3.779-.1-4.362-.208-8.87.075-13.232l.109-1.6a112.468,112.468,0,0,0,.354-15.16c-.32-4.364-1.26-10.537-5.725-13.725a3.843,3.843,0,0,0-2.551-.732,4.184,4.184,0,0,0-.991-.117h-1.065c-12.992.024-26.174.708-38.921,1.371-11.738.61-23.875,1.241-35.813,1.353-9.189.1-18.558.08-27.616.061q-5.529-.012-11.046-.016c-2.588,0-5.193.12-7.711.237-2.9.136-5.9.274-8.827.224-.229,0-.488-.013-.767-.024-.533-.021-1.14-.043-1.782-.043a12.524,12.524,0,0,0-4.458.652l-1.707,1.094a3.7,3.7,0,0,0-.5.636,2.077,2.077,0,0,0-.237.314,3.929,3.929,0,0,0-.77,2.346c0,12.068.112,24.341.221,36.213.133,14.835.271,30.173.194,45.243-.04,7.275-.056,15.879.138,24.528v.016h0v.005c.168,6.663.367,11.727.647,16.427.309,5.336.258,10.742.208,15.972-.008.983-.019,1.968-.027,2.953-.008,1.017-.058,2.074-.106,3.1-.189,4-.386,8.138,1.6,12.034a3.455,3.455,0,0,0,2.184,1.816,3.42,3.42,0,0,0,2.2-.173,22.676,22.676,0,0,0,3.443.791c3.534,8.62,14.2,8.343,20.012,8.194,5.385-.125,11.994-.732,15.328-4.351a7.41,7.41,0,0,0,1.965-4.463c8.117,0,16.467.011,24.64.229,4.354.122,8.791.274,13.08.421,8.495.288,17.274.586,25.921.684a8.3,8.3,0,0,0,2.663,5.728c3.025,2.817,7.757,3.427,11.293,3.427a31.822,31.822,0,0,0,4.029-.256c3.153-.434,7.155-1.276,10.132-3.981a12.743,12.743,0,0,0,3.763-6.74c6.585-3.366,6.735-13.048,6.825-18.9.053-2.186,0-4.394-.059-6.529-.04-1.5-.08-3.06-.08-4.58,0-1.257.115-2.636.237-4.1.083-.98.168-1.992.221-3.028.232-3.973.373-8,.418-11.959C-2043.532,199.292-2043.793,190.1-2044.044,181.216Zm-119.223,77.818c-.458,0-.873-.005-1.228,0h-.011c-.314.008-.642.016-.98.027a30.3,30.3,0,0,1-6.889-.33c1.174-.091,2.341-.2,3.491-.3,2.958-.266,5.755-.519,8.47-.519h5C-2157.161,259.076-2161.11,259.05-2163.267,259.034Zm101.784.317a20.1,20.1,0,0,1-5.7,1.3c-3.854.4-6.875,0-7.887-1.031a1.468,1.468,0,0,1-.128-.146c2.69.075,5.438.141,8.154.141A50.3,50.3,0,0,0-2061.483,259.351Zm9.456-36.394c-.064,1.214-.13,2.431-.194,3.661-.085,2.072-.016,4.186.051,6.231.042,1.326.088,2.7.088,4.024a47.466,47.466,0,0,1-.8,9.744,10.384,10.384,0,0,1-1.15,3.363,4.061,4.061,0,0,0-2.807.335c-3.3,1.67-7.674,1.616-11.536,1.568l-.5-.005c-2.527-.021-5.089-.093-7.568-.16s-5.065-.139-7.613-.162c-8.3-.093-16.76-.394-24.938-.684-4.127-.146-8.4-.3-12.606-.423-8.175-.248-16.444-.288-24.557-.288q-3.036,0-6.034.005-3.048,0-6.1.005c-4.788,0-9.672.213-14.913.65l-.823.061c-3.9.3-8.313.628-11.885-.714a23.4,23.4,0,0,1-.056-3.566c.008-.237.016-.469.024-.706.021-1.236.069-2.5.115-3.715s.093-2.506.117-3.768c.107-7.318.006-13.085-.327-18.7-.78-13.256-.735-26.794-.689-39.882.083-15.33-.061-30.908-.2-45.977-.093-10.335-.192-21.008-.216-31.529.785,0,1.536.005,2.306.045,2.383.1,4.769,0,7.075-.093,5.374-.216,10.987-.32,17.163-.32q4.518,0,9.03.011c8.867.016,18.039.035,27.082-.1,10.859-.17,21.854-.754,32.49-1.315,12.427-.66,25.271-1.342,37.935-1.361,1.569,1.915,1.811,5.121,2.005,7.73l.021.261a90.028,90.028,0,0,1-.226,11.93c-.035.519-.067,1.039-.1,1.547-.588,8.585-.349,17.325-.114,25.777.114,4.2.234,8.551.25,12.814.043,7.142.229,14.4.41,21.415.208,8,.421,16.278.421,24.408C-2051.391,211.059-2051.716,217.109-2052.027,222.957Z" transform="translate(2194.79 -91.45)" fill="#fff"/>
    </g>
    <g id="Group_8" data-name="Group 8" transform="translate(-2167.76 134.885)">
      <path id="Path_5" data-name="Path 5" d="M-1998.764,276.84l0-.005a39.792,39.792,0,0,0-25.3-20.616c-9.8-2.628-21.237-2.114-32.181,1.449a41.7,41.7,0,0,0-19.482,13.711l-.016,0-.085-.011c-7.747-.775-13.139,1.526-15.594,6.655-2.117,4.391-1.805,9.97-1.531,14.891.064,1.166.128,2.266.152,3.3q.028,1.011.064,2.024a64.917,64.917,0,0,1-.1,8.665c-.032.351-.067.7-.1,1.049a30.946,30.946,0,0,0,.128,9.9c1.3,5.544,6.367,8.1,13.9,7.014l.056-.008a46.439,46.439,0,0,0,3.419,5.009c6.666,8.433,16.353,13.474,28.011,14.577q2.6.244,5.161.245A49.431,49.431,0,0,0-2016,337.327c9.358-5.816,16.526-15.333,20.177-26.791A44.318,44.318,0,0,0-1998.764,276.84Zm-82.313,2.3c-.352.626-.684,1.244-1.007,1.848a43.821,43.821,0,0,0-3.233,7.8,37.218,37.218,0,0,1,.375-5.64A4.445,4.445,0,0,1-2081.077,279.135Zm-4.173,29.878c.069-.66.144-1.337.2-2.008a49.833,49.833,0,0,0,2.692,10.431,9.165,9.165,0,0,1-1.92-.173c-.829-.184-1.049-1.118-1.207-3.014A27.439,27.439,0,0,1-2085.25,309.013Zm81.769.426a40.777,40.777,0,0,1-17.2,21.748c-7.235,4.476-16.515,6.439-26.131,5.531-9.5-.881-17.115-4.86-22.616-11.823a41.083,41.083,0,0,1-8.391-24.139l-.005-.144-.035-.138a11.8,11.8,0,0,1-.333-2.021l-.016-.269-.12-.242a2.019,2.019,0,0,0-.133-.224c-1.015-4.836,1.616-10.4,4.617-15.687a41.023,41.023,0,0,1,11.395-12.737c7.411-5.339,18.337-7.773,29.968-6.679a36.672,36.672,0,0,1,14.345,4.223c3.906,2.162,7.629,5.928,11.07,11.195a34.841,34.841,0,0,1,5.534,19.13A40.387,40.387,0,0,1-2003.481,309.439Z" transform="translate(2093.281 -254.562)" fill="#fff"/>
    </g>
    <g id="Group_9" data-name="Group 9" transform="translate(-2182.606 101.143)">
      <path id="Path_6" data-name="Path 6" d="M-1810.787,137.668a3.756,3.756,0,0,1-.882,2.474,3.52,3.52,0,0,1-2.716,1.166,4,4,0,0,1-3.965-4.1,3.745,3.745,0,0,1,.884-2.474,3.519,3.519,0,0,1,2.714-1.166A4,4,0,0,1-1810.787,137.668Z" transform="translate(1906.408 -132.047)" fill="#fff"/>
      <path id="Path_7" data-name="Path 7" d="M-1690.869,169.681a3.76,3.76,0,0,1-2.692,1.313h-.924a4.12,4.12,0,0,1-2.745-.953,3.832,3.832,0,0,1-1.353-2.636,3.917,3.917,0,0,1,.991-2.884,3.751,3.751,0,0,1,2.692-1.31h.924a4.107,4.107,0,0,1,2.743.953l.091.083a4.369,4.369,0,0,1,1.251,2.46l.011.1A3.9,3.9,0,0,1-1690.869,169.681Z" transform="translate(1818.54 -153.794)" fill="#fff"/>
      <path id="Path_8" data-name="Path 8" d="M-1726.3,169.681a3.759,3.759,0,0,1-2.692,1.313h-.325a4.108,4.108,0,0,1-2.743-.953,3.812,3.812,0,0,1-1.353-2.636,3.9,3.9,0,0,1,.988-2.884,3.756,3.756,0,0,1,2.692-1.31h.325a4.108,4.108,0,0,1,2.743.953l.045.037a3.9,3.9,0,0,1,1.308,2.6A3.908,3.908,0,0,1-1726.3,169.681Z" transform="translate(1844.097 -153.794)" fill="#fff"/>
      <path id="Path_9" data-name="Path 9" d="M-1688.613,134.323a3.76,3.76,0,0,1-2.692,1.313h-.924a4.11,4.11,0,0,1-2.743-.956,3.811,3.811,0,0,1-1.353-2.636,3.9,3.9,0,0,1,.988-2.881,3.76,3.76,0,0,1,2.692-1.313h.924a4.109,4.109,0,0,1,2.737.951,3.972,3.972,0,0,1,1.35,2.546l.011.1A3.911,3.911,0,0,1-1688.613,134.323Z" transform="translate(1816.884 -127.85)" fill="#fff"/>
      <path id="Path_10" data-name="Path 10" d="M-1723.881,134.323a3.756,3.756,0,0,1-2.692,1.313h-.322a4.122,4.122,0,0,1-2.745-.956,3.821,3.821,0,0,1-1.353-2.636,3.911,3.911,0,0,1,.99-2.881,3.755,3.755,0,0,1,2.692-1.313h.322a4.12,4.12,0,0,1,2.746.953l.037.035a4.208,4.208,0,0,1,1.3,2.508l.01.1A3.912,3.912,0,0,1-1723.881,134.323Z" transform="translate(1842.319 -127.85)" fill="#fff"/>
      <path id="Path_11" data-name="Path 11" d="M-1771.583,170.888a3.555,3.555,0,0,1-3.614,3.693,4,4,0,0,1-3.984-4.1,3.756,3.756,0,0,1,.884-2.477,3.527,3.527,0,0,1,2.714-1.166A3.963,3.963,0,0,1-1771.583,170.888Z" transform="translate(1877.669 -156.457)" fill="#fff"/>
      <path id="Path_12" data-name="Path 12" d="M-1769.187,135.408a3.747,3.747,0,0,1-.884,2.476,3.528,3.528,0,0,1-2.714,1.166,4,4,0,0,1-3.965-4.1,3.768,3.768,0,0,1,.882-2.476,3.529,3.529,0,0,1,2.716-1.166A4,4,0,0,1-1769.187,135.408Z" transform="translate(1875.886 -130.389)" fill="#fff"/>
      <path id="Path_13" data-name="Path 13" d="M-1813.176,173.2a3.728,3.728,0,0,1-.9,2.484,3.567,3.567,0,0,1-2.732,1.158,4,4,0,0,1-3.965-4.1,3.741,3.741,0,0,1,.881-2.474,3.518,3.518,0,0,1,2.713-1.166A4.012,4.012,0,0,1-1813.176,173.2Z" transform="translate(1908.184 -158.116)" fill="#fff"/>
      <path id="Path_14" data-name="Path 14" d="M-1852.17,176.92a3.756,3.756,0,0,1-2.692,1.313,4.159,4.159,0,0,1-3.11-1.081l-.04-.043a4.22,4.22,0,0,1-1.228-2.884,4.108,4.108,0,0,1,.956-2.745,3.811,3.811,0,0,1,2.636-1.353,3.919,3.919,0,0,1,2.881.988l.346.346a3.963,3.963,0,0,1,1.241,2.575A3.917,3.917,0,0,1-1852.17,176.92Z" transform="translate(1936.41 -158.863)" fill="#fff"/>
      <path id="Path_15" data-name="Path 15" d="M-1849.91,141.388a3.765,3.765,0,0,1-2.695,1.313,4.158,4.158,0,0,1-3.11-1.084l-.04-.04a4.229,4.229,0,0,1-1.225-2.884,4.114,4.114,0,0,1,.953-2.745,3.811,3.811,0,0,1,2.636-1.353,3.9,3.9,0,0,1,2.881.988l.048.045.3.3a3.847,3.847,0,0,1,1.238,2.572A3.915,3.915,0,0,1-1849.91,141.388Z" transform="translate(1934.751 -132.792)" fill="#fff"/>
      <path id="Path_16" data-name="Path 16" d="M-1932.274,143.148c-.152-5.667-6-9.11-11.379-9.911a11.672,11.672,0,0,0-9.517,2.679,9.82,9.82,0,0,0-3.182,7.911c0,.072.008.136.013.2a3.977,3.977,0,0,0,.229,3.14,13.975,13.975,0,0,0,12.521,7.336q.359,0,.719-.016A11.259,11.259,0,0,0-1932.274,143.148Zm-16.339.2a2.049,2.049,0,0,1,.591-1.76,5.04,5.04,0,0,1,3.989-.554c1.76.309,4.17,1.486,4.117,2.708-.2,2.407-2.825,3.049-4.348,3.049a5.933,5.933,0,0,1-4.444-2.423,4.683,4.683,0,0,0,.1-.953Z" transform="translate(2007.814 -131.7)" fill="#fff"/>
      <path id="Path_17" data-name="Path 17" d="M-2103.741,150.762c-1.843-2.956-4.775-4.143-7.4-4.91-4.087-1.212-8.478-1.236-12.723-1.26-1.163-.008-2.263-.013-3.353-.043-4.729-.144-9.717.005-14.129,2.066-4.849,2.279-7.579,6.814-7.688,12.753a3.428,3.428,0,0,0,1.1,2.711,3.653,3.653,0,0,0,2.2.892,3.814,3.814,0,0,0,3.065,1.457c6.013,0,12.122-.117,18.025-.232s11.989-.232,17.975-.232a3.9,3.9,0,0,0,3.685-4.032c.011-.7.088-1.417.171-2.181C-2102.583,155.545-2102.316,153.044-2103.741,150.762Zm-6.535,5.47c-5.206.032-10.47.13-15.575.226-4.934.091-10.018.186-15.045.221,1.424-3.752,6.306-4.436,11.423-4.436.85,0,1.7.019,2.554.045.764.019,1.531.032,2.3.045a77.695,77.695,0,0,1,8.939.5,10.494,10.494,0,0,1,4.99,1.619l.037.027C-2110.468,154.608-2110.22,155.012-2110.276,156.232Z" transform="translate(2149.036 -140.074)" fill="#fff"/>
      <path id="Path_18" data-name="Path 18" d="M-1938.684,323.982v-.005c-.359-4.042-3.334-7.89-7.951-10.292-6.82-3.592-17.053-4.01-27.374-1.121-4.8,1.318-9.8,4.74-14.079,9.637-3.941,4.506-5.832,9.85-5.342,15.091a1.336,1.336,0,0,0-.019.234l0,.1a12.07,12.07,0,0,1-.346,3.19l-.013.083c-1.337,9.863,5.478,18.747,12.3,23.772a25.74,25.74,0,0,0,14.292,5.2c.711.037,1.462.059,2.237.059,4.9,0,10.841-.865,14.976-4.335,5.629-4.7,2.445-11.719.911-15.1-1.145-2.477-1.992-4.546-1.646-6.766.285-1.915,1.577-3.781,4.061-5.872l.024-.019C-1943.267,334.857-1938.144,330.359-1938.684,323.982Zm-19.721,22.954a25.305,25.305,0,0,0,2.359,6.942c.155.344.311.687.469,1.044l.072.154c1.132,2.482,1.483,3.816.431,4.684-3.387,2.8-10.066,3.014-15.181,1.981-4.064-.82-8.4-3.84-11.917-8.295-1.582-1.981-4.234-5.936-4.183-10.183l0-.176-.045-.17a14.457,14.457,0,0,1,.36-6.127,2.362,2.362,0,0,0,.144-.743l0-.075c-.287-5.1,4.391-9.688,6.417-11.424a22.232,22.232,0,0,1,10.859-5.238,40.667,40.667,0,0,1,12.116-.4c4.471.522,7.459,1.781,9.134,3.85,2.2,2.74.186,5.342-4.306,9.184C-1956.837,336.351-1959.165,341.538-1958.406,346.936Z" transform="translate(2035.266 -261.979)" fill="#fff"/>
    </g>
  </g>
</svg>
